<svg width="7" height="15" viewBox="0 0 7 15">
  <path d="M508.223 629.989h1.519v6.769c0 .134.1.242.223.242h2.576c.123 0 .223-.108.223-.242v-6.737h1.746c.114 0 .21-.093.222-.215l.266-2.492a.256.256 0 0 0-.056-.189.217.217 0 0 0-.166-.08h-2.012v-1.563c0-.47.234-.71.696-.71h1.316c.123 0 .223-.107.223-.241v-2.287c0-.134-.1-.242-.223-.242h-1.813a1.26 1.26 0 0 0-.083-.002c-.314 0-1.407.066-2.27.926a2.714 2.714 0 0 0-.793 2.292v1.827h-1.594c-.124 0-.224.108-.224.242v2.46c0 .134.1.242.224.242z" fill="#fff" transform="translate(-508 -622)"/>
</svg>
