<svg xmlns="http://www.w3.org/2000/svg" xmlns:xlink="http://www.w3.org/1999/xlink" width="22" height="18" viewBox="0 0 22 18"><defs><path id="thafa" d="M402.928 3682.93c2.131-.367 2.472-1.906 2.512-2.63a.724.724 0 0 1 .311-.563c.781-.525.987-1.226.987-1.823a3.08 3.08 0 0 0-.183-1.016.246.246 0 0 1 .106-.292c.89-.532 1.12-1.289 1.12-1.927 0-.373-.077-.704-.148-.93a.426.426 0 0 1-.01-.096c0-.122.097-.257.224-.257h4.582c1.048 0 1.571-.8 1.571-1.604 0-.805-.523-1.605-1.57-1.605h-8.06c-.473 0-.766-.37-.766-.77 0-.242.108-.476.349-.637l1.165-.772c.55-.341.777-.834.778-1.325 0-1.11-1.164-2.195-2.406-1.424l-11.36 6.077a.242.242 0 0 0-.13.205v8.534c0 .122.102.223.22.23l3.4.214c.04.002.08.015.112.038 3.132 2.118 5.15 2.724 7.196 2.372z"/></defs><g><g transform="translate(-392 -3665)"><use fill="#672aa0" xlink:href="#thafa"/></g></g></svg>