<svg xmlns="http://www.w3.org/2000/svg">
  <symbol id="stick" viewBox="0 0 112 111">
    <path d="M60.482 86.996a6.52 6.52 0 0 1-4.604-1.89 6.414 6.414 0 0 1 0-9.129l98.985-98.118a6.55 6.55 0 0 1 9.208 0 6.413 6.413 0 0 1 0 9.128L65.086 85.105a6.52 6.52 0 0 1-4.604 1.891z" transform="translate(-54 24)"/>
  </symbol>
  <symbol id="circle" viewBox="0 0 106 106">
    <path id="a" d="M233 622c29.271 0 53 23.729 53 53 0 29.27-23.729 53-53 53s-53-23.73-53-53c0-29.271 23.729-53 53-53z" transform="translate(-180 -622)"/>
  </symbol>
  <symbol id="ring" viewBox="0 0 64 64">
    <circle cx="32" cy="32" r="18" stroke="#fff" stroke-width="5" fill="transparent"/>
  </symbol>
  <symbol id="rectangle" viewBox="0 0 53 66">
    <path d="M319.341 182.885l2.514 24.262 2.514 24.262-22.372-9.795-22.372-9.796 19.858-14.467z" transform="translate(-279 -166)" fill="currentColor"/>
    <path d="M283.484 197.302l42.955-31.335 5.645 52.837zm40.887-26.67l-35.813 26.125 40.52 17.927z" transform="translate(-279 -166)" fill="#fff"/>
  </symbol>
  <symbol id="person" viewBox="0 0 16 22">
    <path d="M419 3063.76c-2.339 0-4.235-2.41-4.235-5.38 0-2.971.622-5.38 4.235-5.38 3.613 0 4.236 2.409 4.236 5.38 0 2.97-1.897 5.38-4.236 5.38zm7.991 7.996c.005.331.008.389.009.359v.402s-1.178 2.483-8 2.483-8-2.483-8-2.483v-.544c.001.048.005.027.012-.385.09-5.04.776-6.493 5.669-7.416 0 0 .696.928 2.32.928 1.622 0 2.319-.928 2.319-.928 4.946.934 5.593 2.408 5.671 7.584z" transform="translate(-411 -3053)"/>
  </symbol>
  <symbol id="tel" viewBox="0 0 17 17">
    <path d="M428.61 3133.443l-2.623-2.636c-.523-.522-1.387-.506-1.928.037l-1.322 1.328-.26-.146c-.836-.465-1.978-1.1-3.18-2.31-1.206-1.21-1.84-2.36-2.304-3.2l-.142-.255.886-.89.437-.438c.541-.545.557-1.413.035-1.937l-2.624-2.636c-.52-.524-1.386-.508-1.928.036l-.739.747.02.02a4.307 4.307 0 0 0-.61 1.08 4.452 4.452 0 0 0-.27 1.094c-.347 2.885.966 5.521 4.526 9.1 4.924 4.944 8.892 4.572 9.063 4.552a4.41 4.41 0 0 0 1.093-.275c.39-.153.755-.36 1.07-.61l.016.015.75-.737c.54-.545.556-1.413.034-1.939z" transform="translate(-412 -3120)"/>
  </symbol>
  <symbol id="pointer" viewBox="0 0 22 18">
    <path d="M402.928 3682.93c2.131-.367 2.472-1.906 2.512-2.63a.724.724 0 0 1 .311-.563c.781-.525.987-1.226.987-1.823a3.08 3.08 0 0 0-.183-1.016.246.246 0 0 1 .106-.292c.89-.532 1.12-1.289 1.12-1.927 0-.373-.077-.704-.148-.93a.426.426 0 0 1-.01-.096c0-.122.097-.257.224-.257h4.582c1.048 0 1.571-.8 1.571-1.604 0-.805-.523-1.605-1.57-1.605h-8.06c-.473 0-.766-.37-.766-.77 0-.242.108-.476.349-.637l1.165-.772c.55-.341.777-.834.778-1.325 0-1.11-1.164-2.195-2.406-1.424l-11.36 6.077a.242.242 0 0 0-.13.205v8.534c0 .122.102.223.22.23l3.4.214c.04.002.08.015.112.038 3.132 2.118 5.15 2.724 7.196 2.372z" transform="translate(-392 -3665)"/>
  </symbol>
</svg>
