<svg xmlns="http://www.w3.org/2000/svg" xmlns:xlink="http://www.w3.org/1999/xlink" width="70" height="99" viewBox="0 0 70 99"><defs><path id="hl8aa" d="M1057.48 3379.97c3.584 0 6.5 2.964 6.5 6.608v76.128c0 3.644-2.916 6.608-6.5 6.608h-43.947v9.711l-6.518-4.41-6.508 4.41v-9.71h-6.509v-89.345zm-47.206 89.344h-6.508v3.53l3.249-2.204 3.259 2.205zm34.18-86.033H997.25v24.83h45.576v33.094h-45.576v24.804h47.206zm16.276 3.297c0-1.818-1.463-3.297-3.25-3.297h-4.888v82.728h4.887c1.788 0 3.251-1.485 3.251-3.303v-21.501h-6.516v-33.095h6.516z"/><linearGradient id="hl8ab" x1="1028.98" x2="1029" y1="3479.03" y2="3379.97" gradientUnits="userSpaceOnUse"><stop offset="0" stop-color="#6d6d6d"/><stop offset=".02" stop-color="#6d6d6d"/><stop offset="1" stop-color="#888"/></linearGradient></defs><g><g transform="translate(-994 -3380)"><use fill="#ff780b" xlink:href="#hl8aa"/><use fill="url(#hl8ab)" xlink:href="#hl8aa"/></g></g></svg>